<mxfile host="app.diagrams.net" modified="2020-11-22T09:35:09.218Z" agent="5.0 (Macintosh; Intel Mac OS X 10_15_7) AppleWebKit/605.1.15 (KHTML, like Gecko) Version/14.0.1 Safari/605.1.15" etag="TfTS0jP3JaQw420TPvyX" version="13.9.3" type="github">
  <diagram id="0d7cefc2-ccd6-e077-73ed-a8e48b0cddf6" name="Page-1">
    <mxGraphModel dx="1113" dy="779" grid="1" gridSize="10" guides="1" tooltips="1" connect="1" arrows="1" fold="1" page="1" pageScale="1" pageWidth="1169" pageHeight="827" background="none" math="0" shadow="0">
      <root>
        <mxCell id="0" />
        <mxCell id="1" parent="0" />
        <mxCell id="tNEw11JNOzxfa5rHaxFZ-194" style="shape=flexArrow;rounded=0;orthogonalLoop=1;jettySize=auto;html=1;exitX=0;exitY=0.5;exitDx=0;exitDy=0;strokeColor=#000000;strokeWidth=2;fontSize=27;entryX=1;entryY=0.5;entryDx=0;entryDy=0;" parent="1" source="tNEw11JNOzxfa5rHaxFZ-108" target="tNEw11JNOzxfa5rHaxFZ-189" edge="1">
          <mxGeometry relative="1" as="geometry">
            <mxPoint x="650" y="260" as="targetPoint" />
          </mxGeometry>
        </mxCell>
        <mxCell id="tNEw11JNOzxfa5rHaxFZ-108" value="&lt;b&gt;Services&lt;br&gt;Repositories&lt;/b&gt;" style="aspect=fixed;perimeter=ellipsePerimeter;html=1;align=center;shadow=0;dashed=0;fontColor=#4277BB;labelBackgroundColor=#ffffff;fontSize=12;spacingTop=3;image;image=img/lib/ibm/miscellaneous/retrieve_rank.svg;" parent="1" vertex="1">
          <mxGeometry x="580" y="435" width="60" height="60" as="geometry" />
        </mxCell>
        <mxCell id="tNEw11JNOzxfa5rHaxFZ-110" value="" style="swimlane;shadow=0;fillColor=#ffffff;fontColor=#4277BB;align=right;startSize=0;collapsible=0;strokeWidth=3;dashed=1;strokeColor=#FF0000;" parent="1" vertex="1">
          <mxGeometry x="290" y="320" width="360" height="250" as="geometry" />
        </mxCell>
        <mxCell id="_aYHdk22vBcxPL4mjeK_-4" value="Decentralized API Market" style="text;html=1;align=center;verticalAlign=middle;fontColor=#4277BB;shadow=0;dashed=0;strokeColor=none;fillColor=none;labelBackgroundColor=none;fontStyle=1;fontSize=18;spacingLeft=0;aspect=fixed;" vertex="1" parent="tNEw11JNOzxfa5rHaxFZ-110">
          <mxGeometry x="65" y="10" width="230" height="30" as="geometry" />
        </mxCell>
        <mxCell id="tNEw11JNOzxfa5rHaxFZ-192" style="edgeStyle=orthogonalEdgeStyle;shape=flexArrow;rounded=0;orthogonalLoop=1;jettySize=auto;html=1;exitX=0;exitY=0.5;exitDx=0;exitDy=0;entryX=1;entryY=0.5;entryDx=0;entryDy=0;strokeColor=#000000;strokeWidth=2;fontSize=27;" parent="1" source="tNEw11JNOzxfa5rHaxFZ-118" target="tNEw11JNOzxfa5rHaxFZ-108" edge="1">
          <mxGeometry relative="1" as="geometry" />
        </mxCell>
        <mxCell id="_aYHdk22vBcxPL4mjeK_-2" style="edgeStyle=orthogonalEdgeStyle;rounded=0;orthogonalLoop=1;jettySize=auto;html=1;exitX=0.5;exitY=1;exitDx=0;exitDy=0;fontSize=18;shape=flexArrow;strokeWidth=2;" edge="1" parent="1" source="tNEw11JNOzxfa5rHaxFZ-118" target="tNEw11JNOzxfa5rHaxFZ-200">
          <mxGeometry relative="1" as="geometry" />
        </mxCell>
        <mxCell id="_aYHdk22vBcxPL4mjeK_-3" value="Config" style="edgeLabel;html=1;align=center;verticalAlign=middle;resizable=0;points=[];fontSize=18;" vertex="1" connectable="0" parent="_aYHdk22vBcxPL4mjeK_-2">
          <mxGeometry x="0.0564" y="1" relative="1" as="geometry">
            <mxPoint as="offset" />
          </mxGeometry>
        </mxCell>
        <mxCell id="tNEw11JNOzxfa5rHaxFZ-118" value="&lt;b&gt;&lt;font style=&quot;font-size: 17px&quot;&gt;Developers&lt;/font&gt;&lt;/b&gt;" style="aspect=fixed;perimeter=ellipsePerimeter;html=1;align=center;shadow=0;dashed=0;fontColor=#4277BB;labelBackgroundColor=#ffffff;fontSize=12;spacingTop=3;image;image=img/lib/ibm/blockchain/blockchain_developer.svg;" parent="1" vertex="1">
          <mxGeometry x="740" y="435" width="60" height="60" as="geometry" />
        </mxCell>
        <mxCell id="tNEw11JNOzxfa5rHaxFZ-159" value="" style="group" parent="1" vertex="1" connectable="0">
          <mxGeometry x="170" y="413" width="190" height="100" as="geometry" />
        </mxCell>
        <mxCell id="tNEw11JNOzxfa5rHaxFZ-160" value="Apron&lt;br&gt;Node" style="aspect=fixed;perimeter=ellipsePerimeter;html=1;align=center;shadow=0;dashed=0;image;image=img/lib/ibm/management/api_management.svg;rounded=1;labelBackgroundColor=#ffffff;strokeColor=#666666;strokeWidth=3;fillColor=#C2952D;gradientColor=none;fontSize=14;fontColor=#4277BB;spacingTop=3;" parent="tNEw11JNOzxfa5rHaxFZ-159" vertex="1">
          <mxGeometry x="130" y="15" width="60" height="60" as="geometry" />
        </mxCell>
        <mxCell id="tNEw11JNOzxfa5rHaxFZ-161" style="edgeStyle=orthogonalEdgeStyle;rounded=0;orthogonalLoop=1;jettySize=auto;html=1;exitX=1;exitY=0.5;exitDx=0;exitDy=0;entryX=0;entryY=0.5;entryDx=0;entryDy=0;strokeWidth=3;" parent="tNEw11JNOzxfa5rHaxFZ-159" source="tNEw11JNOzxfa5rHaxFZ-162" target="tNEw11JNOzxfa5rHaxFZ-160" edge="1">
          <mxGeometry relative="1" as="geometry" />
        </mxCell>
        <mxCell id="tNEw11JNOzxfa5rHaxFZ-162" value="&lt;b&gt;Parachain&lt;br&gt;Node&lt;/b&gt;" style="aspect=fixed;perimeter=ellipsePerimeter;html=1;align=center;shadow=0;dashed=0;image;image=img/lib/ibm/data/data_services.svg;rounded=1;labelBackgroundColor=#ffffff;strokeColor=#666666;strokeWidth=3;fillColor=#C2952D;gradientColor=none;fontSize=14;fontColor=#4277BB;" parent="tNEw11JNOzxfa5rHaxFZ-159" vertex="1">
          <mxGeometry y="15" width="60" height="60" as="geometry" />
        </mxCell>
        <mxCell id="tNEw11JNOzxfa5rHaxFZ-163" style="edgeStyle=orthogonalEdgeStyle;rounded=0;orthogonalLoop=1;jettySize=auto;html=1;exitX=0;exitY=0.5;exitDx=0;exitDy=0;entryX=1;entryY=0.5;entryDx=0;entryDy=0;strokeWidth=3;" parent="tNEw11JNOzxfa5rHaxFZ-159" source="tNEw11JNOzxfa5rHaxFZ-160" target="tNEw11JNOzxfa5rHaxFZ-162" edge="1">
          <mxGeometry relative="1" as="geometry" />
        </mxCell>
        <mxCell id="tNEw11JNOzxfa5rHaxFZ-164" value="" style="html=1;labelBackgroundColor=#ffffff;endArrow=none;endFill=0;jettySize=auto;orthogonalLoop=1;strokeWidth=3;dashed=1;fontSize=14;" parent="tNEw11JNOzxfa5rHaxFZ-159" edge="1">
          <mxGeometry width="60" height="60" relative="1" as="geometry">
            <mxPoint x="96" y="100" as="sourcePoint" />
            <mxPoint x="96" as="targetPoint" />
          </mxGeometry>
        </mxCell>
        <mxCell id="tNEw11JNOzxfa5rHaxFZ-200" value="&lt;b&gt;DApp&lt;/b&gt;" style="aspect=fixed;perimeter=ellipsePerimeter;html=1;align=center;shadow=0;dashed=0;fontColor=#4277BB;labelBackgroundColor=#ffffff;fontSize=12;spacingTop=3;image;image=img/lib/ibm/users/browser.svg;strokeColor=#B3B3B3;" parent="1" vertex="1">
          <mxGeometry x="740" y="600" width="60" height="60" as="geometry" />
        </mxCell>
        <mxCell id="tNEw11JNOzxfa5rHaxFZ-201" value="&lt;b&gt;Smart&lt;br&gt;Contracts&lt;/b&gt;" style="aspect=fixed;perimeter=ellipsePerimeter;html=1;align=center;shadow=0;dashed=0;fontColor=#4277BB;labelBackgroundColor=#ffffff;fontSize=12;spacingTop=3;image;image=img/lib/ibm/blockchain/smart_contract.svg;strokeColor=#B3B3B3;" parent="1" vertex="1">
          <mxGeometry x="400" y="430" width="60" height="60" as="geometry" />
        </mxCell>
        <mxCell id="tNEw11JNOzxfa5rHaxFZ-189" value="" style="swimlane;shadow=0;strokeColor=#4277BB;fillColor=#ffffff;fontColor=#4277BB;align=right;startSize=0;collapsible=0;strokeWidth=3;" parent="1" vertex="1">
          <mxGeometry x="380" y="390" width="110" height="150" as="geometry" />
        </mxCell>
      </root>
    </mxGraphModel>
  </diagram>
</mxfile>
